REM MD5 e1fca510dd5fdbc432d5cb2de140e783
FILE "Simple 1500 Series Vol. 14 - The Block Kuzushi (Japan).bin" BINARY
  TRACK 01 MODE2/2352
    INDEX 01 00:00:00
  TRACK 02 AUDIO
    INDEX 00 01:02:67
    INDEX 01 01:04:67
  TRACK 03 AUDIO
    INDEX 00 01:11:11
    INDEX 01 01:13:11
  TRACK 04 AUDIO
    INDEX 00 01:19:11
    INDEX 01 01:21:11
  TRACK 05 AUDIO
    INDEX 00 01:28:49
    INDEX 01 01:30:49
REM LEADOUT 06:03:50
